<svg width="22" height="22" viewBox="0 0 22 22" fill="none" xmlns="http://www.w3.org/2000/svg">
<path d="M13.1105 0.00621779C12.5617 -0.0548373 12.0672 0.340639 12.0061 0.889538C11.9451 1.43844 12.3406 1.9329 12.8895 1.99396C14.7057 2.19598 16.3996 3.01037 17.6929 4.30368C18.9862 5.59701 19.8021 7.29242 20.0062 9.11161C20.0678 9.66045 20.5627 10.0554 21.1115 9.99385C21.6604 9.93226 22.0554 9.4374 21.9938 8.88856C21.7391 6.61911 20.7212 4.5036 19.1071 2.88946C17.4929 1.2753 15.3784 0.258473 13.1105 0.00621779Z" fill="#A401AD"/>
<path d="M13.1915 4.01859C12.6494 3.91284 12.1243 4.26653 12.0185 4.80859C11.9127 5.35066 12.2664 5.87582 12.8085 5.98158C13.5899 6.13403 14.308 6.51619 14.871 7.07913C15.4339 7.64207 15.8161 8.36019 15.9685 9.14158C16.0743 9.68365 16.5994 10.0373 17.1415 9.93158C17.6836 9.82582 18.0373 9.30066 17.9315 8.75859C17.7028 7.58651 17.1296 6.50933 16.2852 5.66492C15.4408 4.8205 14.3636 4.24727 13.1915 4.01859Z" fill="#A401AD"/>
<path d="M3.11765 2.00009C2.2908 2.00009 1.49781 2.32855 0.913138 2.91323C0.328465 3.4979 0 4.29088 0 5.11774C0 5.13797 0.000614107 5.1582 0.00184143 5.17839C0.267651 9.55238 2.12507 13.6779 5.22365 16.7764C8.32224 19.875 12.4477 21.7324 16.8217 21.9982C16.8419 21.9995 16.8621 22.0001 16.8824 22.0001C17.7092 22.0001 18.5022 21.6716 19.0869 21.087C19.6715 20.5023 20 19.7093 20 18.8824V16.0012C20 14.7745 19.2531 13.6714 18.1142 13.2158L15.4543 12.1518C14.205 11.6521 12.7776 12.1329 12.0853 13.2868C11.8655 13.6531 11.4936 13.6784 11.2937 13.5428C10.1771 12.7857 9.21441 11.8229 8.45725 10.7064C8.32169 10.5065 8.34701 10.1345 8.71332 9.91476C9.86715 9.22246 10.348 7.79511 9.84825 6.54577L8.78431 3.88592C8.32872 2.74694 7.22559 2.00009 5.99887 2.00009H3.11765Z" fill="#A401AD"/>
</svg>
