<svg width="36" height="36" viewBox="0 0 36 36" fill="none" xmlns="http://www.w3.org/2000/svg">
<g clip-path="url(#clip0_95_1097)">
<path d="M0 18C0 8.0586 8.0568 0 18 0C27.9396 0 36 8.0586 36 18C36 27.9414 27.9396 36 18 36C8.0568 36 0 27.9414 0 18Z" fill="white"/>
<path fill-rule="evenodd" clip-rule="evenodd" d="M6.75 15.8008C6.75 9.87548 11.5531 5.07239 17.4784 5.07239C23.4036 5.07239 28.2067 9.87548 28.2067 15.8008C28.2067 18.7623 27.0068 21.4439 25.066 23.3852C24.5594 23.8921 23.8736 24.4581 23.1318 25.0703C21.0309 26.8041 18.4812 28.9083 18.283 31.0887C18.2428 31.531 17.9225 31.8933 17.4784 31.8933C17.0342 31.8933 16.714 31.531 16.6737 31.0887C16.4755 28.9083 13.9258 26.8041 11.825 25.0703C11.0832 24.4581 10.3973 23.8921 9.89073 23.3852C7.94997 21.4439 6.75 18.7623 6.75 15.8008ZM21.2332 15.6755C21.2332 17.7493 19.5521 19.4304 17.4783 19.4304C15.4046 19.4304 13.7234 17.7493 13.7234 15.6755C13.7234 13.6017 15.4046 11.9205 17.4783 11.9205C19.5521 11.9205 21.2332 13.6017 21.2332 15.6755Z" fill="#F22411"/>
</g>
<defs>
<clipPath id="clip0_95_1097">
<rect width="36" height="36" fill="white"/>
</clipPath>
</defs>
</svg>
