<svg width="335" height="121" viewBox="0 0 335 121" fill="none" xmlns="http://www.w3.org/2000/svg">
<path d="M178.491 120.651C151.991 120.651 130.429 99.0894 130.429 72.5899L130.419 3.10651H226.665V6.21785C226.665 6.21785 226.549 47.762 226.549 72.5899C226.549 99.0894 204.992 120.651 178.491 120.651ZM136.632 9.31952L136.642 72.5899C136.642 95.664 155.417 114.438 178.491 114.438C201.566 114.438 220.336 95.664 220.336 72.5899C220.336 51.8395 220.414 19.4217 220.438 9.31952H136.627H136.632ZM135.328 117.192H0L67.6638 0L135.328 117.192ZM10.7644 110.979H124.568L67.6638 12.426L10.7644 110.979ZM290.121 116.864H239.029V49.965C239.029 24.3061 259.901 3.42537 285.555 3.42537H335V80.832H290.121V116.859V116.864ZM245.242 110.651H283.908V74.6238H328.787V9.64322H285.555C263.326 9.64322 245.242 27.7363 245.242 49.9698V110.655V110.651Z" fill="#A401AD"/>
<path d="M178.54 75.532C177.685 75.532 176.989 74.8363 176.989 73.9811V6.20806C176.989 5.35293 177.685 4.65723 178.54 4.65723C179.395 4.65723 180.091 5.35293 180.091 6.20806V73.9763C180.091 74.8314 179.395 75.5271 178.54 75.5271" fill="#A401AD"/>
<path d="M331.894 44.1673H287.015C286.155 44.1673 285.464 43.4716 285.464 42.6165C285.464 41.7614 286.155 41.0657 287.015 41.0657H331.894C332.749 41.0657 333.445 41.7614 333.445 42.6165C333.445 43.4716 332.749 44.1673 331.894 44.1673Z" fill="#A401AD"/>
<path d="M67.6637 84.3154C61.7259 84.3154 56.8945 79.4841 56.8945 73.5465C56.8945 67.6089 61.7259 62.7776 67.6637 62.7776C73.6015 62.7776 78.4329 67.6089 78.4329 73.5465C78.4329 79.4841 73.6015 84.3154 67.6637 84.3154ZM67.6637 65.8841C63.4411 65.8841 60.0011 69.3191 60.0011 73.5465C60.0011 77.7739 63.4411 81.2089 67.6637 81.2089C71.8864 81.2089 75.3263 77.769 75.3263 73.5465C75.3263 69.324 71.8864 65.8841 67.6637 65.8841Z" fill="#A401AD"/>
<path d="M71.0314 73.5464C71.0314 75.4016 69.524 76.9089 67.6639 76.9089C65.8038 76.9089 64.2964 75.4016 64.2964 73.5464C64.2964 71.6911 65.8038 70.179 67.6639 70.179C69.524 70.179 71.0314 71.6863 71.0314 73.5464Z" fill="#A401AD"/>
</svg>
