<svg width="36" height="36" viewBox="0 0 36 36" fill="none" xmlns="http://www.w3.org/2000/svg">
<g clip-path="url(#clip0_95_1332)">
<path d="M0 18C0 8.0586 8.0568 0 18 0C27.9396 0 36 8.0586 36 18C36 27.9414 27.9396 36 18 36C8.0568 36 0 27.9414 0 18Z" fill="white"/>
<g clip-path="url(#clip1_95_1332)">
<path d="M20.7398 4.39637C19.8817 4.11065 18.9456 3.94739 17.99 3.94739C15.2403 3.94739 12.7636 5.25351 11.106 7.31473L15.3573 11.0494L20.7398 4.39637Z" fill="#1A73E8"/>
<path d="M11.1062 7.3147C9.79957 8.94735 9 11.0698 9 13.3555C9 15.131 9.33153 16.5596 9.89707 17.8453L15.3575 11.0494L11.1062 7.3147Z" fill="#EA4335"/>
<path d="M18.0096 9.76371C19.9208 9.76371 21.4614 11.376 21.4614 13.376C21.4614 14.2535 21.1494 15.0698 20.6424 15.7025C20.6424 15.7025 23.3531 12.3147 26.0053 9.02902C24.9132 6.82493 23.0216 5.15146 20.7399 4.39636L15.3574 11.0494C16.001 10.2739 16.9371 9.76371 18.0096 9.76371Z" fill="#4285F4"/>
<path d="M18.0096 16.9678C16.0985 16.9678 14.5579 15.3556 14.5579 13.3556C14.5579 12.478 14.8504 11.6617 15.3574 11.0494L9.89697 17.8454C10.8331 20.0086 12.3932 21.7637 13.9923 23.9474L20.6424 15.6821C19.9988 16.478 19.0627 16.9678 18.0096 16.9678Z" fill="#FBBC04"/>
<path d="M20.5252 26.2331C23.5285 21.3148 27.0193 19.0903 27.0193 13.376C27.0193 11.8046 26.6487 10.3352 26.0052 9.02905L13.9922 23.9474C14.4992 24.6413 15.0258 25.4372 15.5328 26.2535C17.366 29.2127 16.8589 30.9678 18.029 30.9678C19.1991 30.9678 18.6921 29.1923 20.5252 26.2331Z" fill="#34A853"/>
</g>
</g>
<defs>
<clipPath id="clip0_95_1332">
<rect width="36" height="36" fill="white"/>
</clipPath>
<clipPath id="clip1_95_1332">
<rect width="18" height="27" fill="white" transform="translate(9 3.94739)"/>
</clipPath>
</defs>
</svg>
