<svg width="24" height="24" viewBox="0 0 24 24" fill="none" xmlns="http://www.w3.org/2000/svg">
<path d="M10 10C10 8.89543 10.8954 8 12 8C13.1046 8 14 8.89543 14 10C14 11.1046 13.1046 12 12 12C10.8954 12 10 11.1046 10 10Z" fill="#A401AD"/>
<path fill-rule="evenodd" clip-rule="evenodd" d="M12 1C7.02944 1 3 5.02944 3 10C3 12.3842 3.9284 14.5537 5.44146 16.1633L11.2544 22.6664C11.4442 22.8787 11.7153 23 12 23C12.2847 23 12.5558 22.8787 12.7456 22.6664L18.5585 16.1633C20.0716 14.5537 21 12.3842 21 10C21 5.02944 16.9706 1 12 1ZM12 6C9.79086 6 8 7.79086 8 10C8 12.2091 9.79086 14 12 14C14.2091 14 16 12.2091 16 10C16 7.79086 14.2091 6 12 6Z" fill="#A401AD"/>
</svg>
