<svg width="76" height="77" viewBox="0 0 76 77" fill="none" xmlns="http://www.w3.org/2000/svg">
<g filter="url(#filter0_dd_147_229)">
<rect x="22" y="13" width="32" height="32" rx="16" fill="black"/>
<rect x="20.7925" y="11.7925" width="34.4151" height="34.4151" rx="17.2075" stroke="#DF61E7" stroke-width="2.41509"/>
<g clip-path="url(#clip0_147_229)">
<circle cx="38" cy="29" r="13" fill="#A401AD"/>
<path d="M38.5599 24.5455C38.5599 24.2393 38.8087 23.9809 39.1149 24.0192C40.091 24.1436 41.0096 24.5838 41.7082 25.2919C42.4163 26 42.8565 26.9091 42.9809 27.8852C43.0192 28.1914 42.7704 28.4402 42.4546 28.4402C42.1484 28.4402 41.8996 28.1914 41.8518 27.8852C41.7369 27.2058 41.4116 26.5742 40.9139 26.0766C40.4163 25.579 39.7848 25.2536 39.1053 25.1388C38.7991 25.0909 38.5503 24.8421 38.5503 24.5359L38.5599 24.5455Z" fill="white"/>
<path d="M42.1677 36.8039C42.1677 36.8039 38.7896 36.7465 34.4834 32.5168C30.2537 28.2201 30.1963 24.8708 30.1963 24.8326C30.1963 24.4115 32.7992 21.1962 33.3733 21.1962C33.5743 21.1962 33.7274 21.3301 33.8997 21.5311C34.3112 22.0191 36.1198 24.8708 36.0336 25.3493C35.9954 25.5694 35.804 25.7417 35.2585 26.201C34.7609 26.5933 34.5791 27.2728 34.8279 27.8661C34.8757 27.9809 34.9332 28.1053 34.9906 28.2201C35.7944 29.8661 37.1246 31.1962 38.7705 32.0001C38.8853 32.0575 39.0002 32.1149 39.1246 32.1628C39.7083 32.4116 40.3877 32.2393 40.7897 31.7321C41.249 31.1867 41.4117 30.9953 41.6413 30.957C42.1198 30.8709 44.9715 32.6795 45.4596 33.091C45.6605 33.2632 45.7945 33.4163 45.7945 33.6173C45.7945 34.1915 42.5791 36.7944 42.1581 36.7944L42.1677 36.8039Z" fill="white"/>
<path d="M45.2393 28.4402C44.9331 28.4402 44.6843 28.1914 44.6556 27.8852C44.5216 26.4689 43.8996 25.1292 42.8853 24.1053C41.8709 23.0909 40.5312 22.4689 39.1053 22.3349C38.7991 22.3062 38.5503 22.0574 38.5503 21.7512C38.5503 21.445 38.7991 21.1866 39.1053 21.2153C40.8183 21.3493 42.4451 22.0957 43.6699 23.3206C44.8948 24.5455 45.6413 26.1627 45.7752 27.8852C45.8039 28.1914 45.5456 28.4402 45.2393 28.4402Z" fill="white"/>
</g>
</g>
<defs>
<filter id="filter0_dd_147_229" x="0.26421" y="0.924585" width="75.4716" height="75.4716" filterUnits="userSpaceOnUse" color-interpolation-filters="sRGB">
<feFlood flood-opacity="0" result="BackgroundImageFix"/>
<feColorMatrix in="SourceAlpha" type="matrix" values="0 0 0 0 0 0 0 0 0 0 0 0 0 0 0 0 0 0 127 0" result="hardAlpha"/>
<feOffset dy="6.03773"/>
<feGaussianBlur stdDeviation="6.03773"/>
<feComposite in2="hardAlpha" operator="out"/>
<feColorMatrix type="matrix" values="0 0 0 0 1 0 0 0 0 1 0 0 0 0 1 0 0 0 0.01 0"/>
<feBlend mode="normal" in2="BackgroundImageFix" result="effect1_dropShadow_147_229"/>
<feColorMatrix in="SourceAlpha" type="matrix" values="0 0 0 0 0 0 0 0 0 0 0 0 0 0 0 0 0 0 127 0" result="hardAlpha"/>
<feOffset dy="9.66038"/>
<feGaussianBlur stdDeviation="9.66038"/>
<feColorMatrix type="matrix" values="0 0 0 0 0.776471 0 0 0 0 0.0941176 0 0 0 0 0.815686 0 0 0 0.5 0"/>
<feBlend mode="normal" in2="effect1_dropShadow_147_229" result="effect2_dropShadow_147_229"/>
<feBlend mode="normal" in="SourceGraphic" in2="effect2_dropShadow_147_229" result="shape"/>
</filter>
<clipPath id="clip0_147_229">
<rect width="26" height="26" fill="white" transform="translate(25 16)"/>
</clipPath>
</defs>
</svg>
