<svg width="30" height="30" viewBox="0 0 30 30" fill="none" xmlns="http://www.w3.org/2000/svg">
<circle cx="15" cy="15" r="14" fill="black" stroke="#DF61E7" stroke-width="2"/>
<g clip-path="url(#clip0_79_5586)">
<path d="M16.4069 7.67065C16.0409 7.62995 15.7113 7.8936 15.6706 8.25953C15.6299 8.62546 15.8935 8.95511 16.2595 8.99581C17.4703 9.13049 18.5996 9.67342 19.4618 10.5356C20.324 11.3978 20.8679 12.5281 21.004 13.7409C21.0451 14.1068 21.375 14.3701 21.7409 14.3291C22.1067 14.288 22.3701 13.9581 22.329 13.5922C22.1592 12.0792 21.4807 10.6689 20.4046 9.59281C19.3285 8.5167 17.9188 7.83882 16.4069 7.67065Z" fill="white"/>
<path d="M16.4608 10.3456C16.0995 10.2751 15.7493 10.5109 15.6788 10.8722C15.6083 11.2336 15.8441 11.5837 16.2055 11.6542C16.7264 11.7559 17.2052 12.0106 17.5805 12.3859C17.9558 12.7612 18.2105 13.24 18.3122 13.7609C18.3827 14.1223 18.7328 14.3581 19.0942 14.2876C19.4555 14.2171 19.6913 13.8669 19.6208 13.5056C19.4684 12.7242 19.0862 12.0061 18.5233 11.4431C17.9603 10.8802 17.2422 10.498 16.4608 10.3456Z" fill="white"/>
<path d="M9.74494 8.9999C9.1937 8.9999 8.66504 9.21887 8.27526 9.60865C7.88548 9.99844 7.6665 10.5271 7.6665 11.0783C7.6665 11.0918 7.66691 11.1053 7.66773 11.1188C7.84494 14.0348 9.08322 16.7851 11.1489 18.8508C13.2147 20.9165 15.965 22.1548 18.881 22.332C18.8944 22.3328 18.9079 22.3332 18.9214 22.3332C19.4726 22.3332 20.0013 22.1143 20.3911 21.7245C20.7809 21.3347 20.9998 20.806 20.9998 20.2548V18.334C20.9998 17.5162 20.5019 16.7808 19.7426 16.477L17.9694 15.7677C17.1365 15.4346 16.1849 15.7551 15.7234 16.5243C15.5769 16.7686 15.3289 16.7854 15.1956 16.6951C14.4513 16.1903 13.8094 15.5485 13.3047 14.8041C13.2143 14.6708 13.2312 14.4229 13.4754 14.2763C14.2446 13.8148 14.5652 12.8632 14.232 12.0304L13.5227 10.2571C13.219 9.4978 12.4836 8.9999 11.6658 8.9999H9.74494Z" fill="white"/>
</g>
<defs>
<clipPath id="clip0_79_5586">
<rect width="16" height="16" fill="white" transform="translate(7 7)"/>
</clipPath>
</defs>
</svg>
