<svg width="64" height="64" viewBox="0 0 64 64" fill="none" xmlns="http://www.w3.org/2000/svg">
<rect width="64" height="64" rx="26" fill="#D700CA"/>
<path fill-rule="evenodd" clip-rule="evenodd" d="M26.4946 17.9999C23.8432 17.9999 21.4193 19.4979 20.2336 21.8694L17.5033 27.33C16.6289 27.1654 15.7543 26.9859 14.8795 26.7915L13.7173 30.0651L15.2825 30.8477C15.8754 31.1442 16.2499 31.7501 16.2499 32.413V44.2499C16.2499 45.2164 17.0334 45.9999 17.9999 45.9999H21.4999V42.4999H42.4999V45.9999H45.9999C46.9664 45.9999 47.7499 45.2164 47.7499 44.2499V32.413C47.7499 31.7501 48.1244 31.1442 48.7173 30.8477L50.2825 30.0651L49.1203 26.7915C48.2455 26.9859 47.3709 27.1654 46.4965 27.33L43.7662 21.8694C42.5805 19.4979 40.1566 17.9999 37.5052 17.9999H26.4946ZM44.0434 30.2499L40.6357 23.4346C40.0429 22.2489 38.8309 21.4999 37.5052 21.4999H26.4946C25.1689 21.4999 23.957 22.2489 23.3641 23.4346L19.9565 30.2499H44.0434ZM26.7499 31.9999H30.2499V35.4999H26.7499V31.9999ZM26.7499 35.4999V38.9999H23.2499V35.4999H26.7499ZM33.7499 35.4999V38.9999H30.2499V35.4999H33.7499ZM37.2499 35.4999H33.7499V31.9999H37.2499V35.4999ZM37.2499 35.4999H40.7499V38.9999H37.2499V35.4999Z" fill="white"/>
</svg>
